<?xml version="1.0" encoding="utf-8"?>
<!-- Generator: Adobe Illustrator 19.0.0, SVG Export Plug-In . SVG Version: 6.00 Build 0)  -->
<svg version="1.1" id="Layer_1" xmlns="http://www.w3.org/2000/svg" xmlns:xlink="http://www.w3.org/1999/xlink" x="0px" y="0px"
	 viewBox="278 33 1356 735" style="enable-background:new 278 33 1356 735;" xml:space="preserve">
<style type="text/css">
	.st0{fill:#6D6D6D;}
	.st1{fill:#FFFFFF;}
	.st2{fill:#BCBEC0;}
	.st3{fill:none;}
	.st4{fill:#414042;}
	.st5{fill:none;stroke:#BCBEC0;stroke-miterlimit:10;}
	.st6{fill:none;stroke:#FFFFFF;stroke-width:5;stroke-miterlimit:10;}
	.st7{fill:#828282;}
	.st8{display:none;}
	.st9{display:inline;}
	.st10{fill:#B2242E;}
	.st11{fill:#8C8485;}
	.st12{fill:#F7941E;}
	.st13{fill:#C9C9C9;}
	.st14{fill:#2B2826;}
</style>
<g id="bg">
	<polygon class="st0" points="1634.3,768 278.3,768 277.7,33 1633.7,33 	"/>
</g>
<g id="sketches">
	<g>
		<g>
			
				<image style="overflow:visible;opacity:0.75;enable-background:new    ;" width="1638" height="1367" xlink:href="717CF29A.png"  transform="matrix(0.239 0 0 0.2393 510.0182 233.5051)">
			</image>
			<g>
				<path class="st1" d="M838.8,549.6l51.6-239.9l-321.8-69.2L517,480.4L838.8,549.6z"/>
			</g>
		</g>
		<g>
			<g>
				<path class="st2" d="M871,352.5c0,0-4.4-0.9-12-2.4s-18.5-3.7-31.6-6.3c-26.1-5.3-60.9-12.3-95.7-19.4
					c-34.8-7.2-69.5-14.4-95.6-19.8c-13-2.7-23.9-5-31.5-6.6c-7.6-1.6-11.9-2.5-11.9-2.5s4.4,0.9,12,2.4s18.5,3.7,31.6,6.3
					c26.1,5.3,60.9,12.3,95.7,19.4c34.8,7.2,69.5,14.4,95.6,19.8c13,2.7,23.9,5,31.5,6.6C866.7,351.6,871,352.5,871,352.5z"/>
			</g>
			<g>
				<path class="st2" d="M870,373.4c0,0-4.4-0.9-12-2.4s-18.5-3.7-31.6-6.3c-26.1-5.3-60.9-12.3-95.7-19.4
					c-34.8-7.2-69.5-14.4-95.6-19.8c-13-2.7-23.9-5-31.5-6.6c-7.6-1.6-11.9-2.5-11.9-2.5s4.4,0.9,12,2.4s18.5,3.7,31.6,6.3
					c26.1,5.3,60.9,12.3,95.7,19.4c34.8,7.2,69.5,14.4,95.6,19.8c13,2.7,23.9,5,31.5,6.6C865.7,372.5,870,373.4,870,373.4z"/>
			</g>
			<g>
				<path class="st2" d="M847,439.8c0,0-4.4-0.9-12-2.4s-18.5-3.7-31.6-6.3c-26.1-5.3-60.9-12.3-95.7-19.4
					c-34.8-7.2-69.5-14.4-95.6-19.8c-13-2.7-23.9-5-31.5-6.6c-7.6-1.6-11.9-2.5-11.9-2.5s4.4,0.9,12,2.4s18.5,3.7,31.6,6.3
					c26.1,5.3,60.9,12.3,95.7,19.4c34.8,7.2,69.5,14.4,95.6,19.8c13,2.7,23.9,5,31.5,6.6C842.7,438.9,847,439.8,847,439.8z"/>
			</g>
			<g>
				<path class="st2" d="M835,473.6c0,0-4.4-0.9-12-2.4s-18.5-3.7-31.6-6.3c-26.1-5.3-60.9-12.3-95.7-19.4
					c-34.8-7.2-69.5-14.4-95.6-19.8c-13-2.7-23.9-5-31.5-6.6c-7.6-1.6-11.9-2.5-11.9-2.5s4.4,0.9,12,2.4s18.5,3.7,31.6,6.3
					c26.1,5.3,60.9,12.3,95.7,19.4c34.8,7.2,69.5,14.4,95.6,19.8c13,2.7,23.9,5,31.5,6.6C830.7,472.7,835,473.6,835,473.6z"/>
			</g>
			<g>
				<path class="st2" d="M807.5,300.3c0,0-2.6,13.2-6.5,33c-2,9.9-4.3,21.4-6.8,33.8s-5.2,25.6-7.9,38.8c-2.7,13.2-5.4,26.4-8,38.7
					c-2.6,12.4-5,23.9-7.1,33.8c-4.2,19.7-7,32.9-7,32.9s2.6-13.2,6.5-33c2-9.9,4.3-21.4,6.8-33.8s5.2-25.6,7.9-38.8
					c2.7-13.2,5.4-26.4,8-38.7c2.6-12.4,5-23.9,7.1-33.8C804.7,313.5,807.5,300.3,807.5,300.3z"/>
			</g>
			<g>
				<path class="st3" d="M752.8,551.8"/>
			</g>
			<g>
				<path class="st3" d="M737.9,369.4"/>
			</g>
			<g>
				<path class="st2" d="M756.3,298.7c0,0-2.6,13.2-6.5,33c-2,9.9-4.3,21.4-6.8,33.8s-5.2,25.6-7.9,38.8c-2.7,13.2-5.4,26.4-8,38.7
					c-2.6,12.4-5,23.9-7.1,33.8c-4.2,19.7-7,32.9-7,32.9s2.6-13.2,6.5-33c2-9.9,4.3-21.4,6.8-33.8s5.2-25.6,7.9-38.8
					c2.7-13.2,5.4-26.4,8-38.7c2.6-12.4,5-23.9,7.1-33.8C753.4,311.9,756.3,298.7,756.3,298.7z"/>
			</g>
			<g>
				<path class="st2" d="M735.7,296.4c0,0-2.6,13.2-6.5,33c-2,9.9-4.3,21.4-6.8,33.8s-5.2,25.6-7.9,38.8c-2.7,13.2-5.4,26.4-8,38.7
					c-2.6,12.4-5,23.9-7.1,33.8c-4.2,19.7-7,32.9-7,32.9s2.6-13.2,6.5-33c2-9.9,4.3-21.4,6.8-33.8s5.2-25.6,7.9-38.8
					c2.7-13.2,5.4-26.4,8-38.7c2.6-12.4,5-23.9,7.1-33.8C732.9,309.5,735.7,296.4,735.7,296.4z"/>
			</g>
		</g>
	</g>
	<g>
		<g>
			
				<image style="overflow:visible;opacity:0.75;enable-background:new    ;" width="1679" height="1783" xlink:href="717CF29E.png"  transform="matrix(0.2394 0 0 0.2397 606.5842 314.7351)">
			</image>
			<g>
				
					<rect x="682.8" y="361.9" transform="matrix(0.8434 0.5373 -0.5373 0.8434 408.9968 -350.3453)" class="st1" width="245.4" height="329.1"/>
			</g>
		</g>
		<path class="st2" d="M804.6,380.2l134.7,86.4c2.9,1.9,3.8,5.8,1.9,8.7L840.9,631.9c-1.9,2.9-5.8,3.8-8.7,1.9l-134.7-86.4
			c-2.9-1.9-3.8-5.8-1.9-8.7L796,382.1C797.8,379.2,801.7,378.4,804.6,380.2z"/>
		<path class="st2" d="M681,575.9l134.7,86.4c2.9,1.9,3.8,5.8,1.9,8.7l-9,14c-1.9,2.9-5.8,3.8-8.7,1.9l-134.7-86.4
			c-2.9-1.9-3.8-5.8-1.9-8.7l9-14C674.2,574.9,678.1,574.1,681,575.9z"/>
	</g>
	<g>
		<g>
			
				<image style="overflow:visible;opacity:0.75;enable-background:new    ;" width="1588" height="1758" xlink:href="717CF299.png"  transform="matrix(0.2392 0 0 0.239 474.4216 -113.593)">
			</image>
			<g>
				
					<rect x="539.6" y="-70.1" transform="matrix(-0.9057 0.424 -0.424 -0.9057 1302.176 -100.8197)" class="st1" width="245.4" height="329.1"/>
			</g>
		</g>
		<path class="st4" d="M701.3,217.7l-69.6,32.8c-3.1,1.5-6.9,0.1-8.4-3l-7.1-15.1c-1.5-3.1-0.1-6.9,3-8.4l69.6-32.8
			c3.1-1.5,6.9-0.1,8.4,3l7.1,15.1C705.8,212.4,704.4,216.2,701.3,217.7z"/>
		<path class="st4" d="M790.9,173.6l-69.6,32.8c-3.1,1.5-6.9,0.1-8.4-3l-7.1-15.1c-1.5-3.1-0.1-6.9,3-8.4l69.6-32.8
			c3.1-1.5,6.9-0.1,8.4,3l7.1,15.1C795.4,168.3,794,172.1,790.9,173.6z"/>
		<path class="st2" d="M780.7,129l-170.1,80.2c-3.1,1.5-6.9,0.1-8.4-3L513.1,17.1c-1.5-3.1-0.1-6.9,3-8.4l170.1-80.2
			c3.1-1.5,6.9-0.1,8.4,3l89.1,189.1C785.2,123.8,783.9,127.6,780.7,129z"/>
	</g>
	<g>
		<g>
			
				<image style="overflow:visible;opacity:0.75;enable-background:new    ;" width="1650" height="1779" xlink:href="717CF29B.png"  transform="matrix(0.2391 0 0 0.2393 694.844 -18.5032)">
			</image>
			<g>
				<path class="st1" d="M914.9-11.5l-213,121.8L865.2,396l213-121.8L914.9-11.5z"/>
			</g>
		</g>
		<g>
			<g>
				<path class="st2" d="M746.7,96.1c0,0,2.3,3.8,6.2,10.5c4,6.7,9.6,16.2,16.4,27.7c13.5,23,31.5,53.6,49.5,84.2
					c17.8,30.7,35.7,61.4,49.1,84.4c6.7,11.5,12.2,21.1,16.1,27.9c3.9,6.7,6.1,10.6,6.1,10.6s-2.3-3.8-6.2-10.5
					c-4-6.7-9.6-16.2-16.4-27.7C854,280.2,836,249.6,818,219c-17.8-30.7-35.7-61.4-49.1-84.4c-6.7-11.5-12.2-21.1-16.1-27.9
					C748.9,99.9,746.7,96.1,746.7,96.1z"/>
			</g>
			<g>
				<path class="st2" d="M762.9,82.8c0,0,2.3,3.8,6.2,10.5c4,6.7,9.6,16.2,16.4,27.7c13.5,23,31.5,53.6,49.5,84.2
					c17.8,30.7,35.7,61.4,49.1,84.4c6.7,11.5,12.2,21.1,16.1,27.9c3.9,6.7,6.1,10.6,6.1,10.6s-2.3-3.8-6.2-10.5
					c-4-6.7-9.6-16.2-16.4-27.7c-13.5-23-31.5-53.6-49.5-84.2c-17.8-30.7-35.7-61.4-49.1-84.4c-6.7-11.5-12.2-21.1-16.1-27.9
					C765.1,86.7,762.9,82.8,762.9,82.8z"/>
			</g>
			<g>
				<path class="st2" d="M827.7,55.7c0,0,2.3,3.8,6.2,10.5c4,6.7,9.6,16.2,16.4,27.7c13.5,23,31.5,53.6,49.5,84.2
					c17.8,30.7,35.7,61.4,49.1,84.4c6.7,11.5,12.2,21.1,16.1,27.9c3.9,6.7,6.1,10.6,6.1,10.6s-2.3-3.8-6.2-10.5
					c-4-6.7-9.6-16.2-16.4-27.7c-13.5-23-31.5-53.6-49.5-84.2c-17.8-30.7-35.7-61.4-49.1-84.4c-6.7-11.5-12.2-21.1-16.1-27.9
					S827.7,55.7,827.7,55.7z"/>
			</g>
			<g>
				<path class="st2" d="M860.9,42c0,0,2.3,3.8,6.2,10.5c4,6.7,9.6,16.2,16.4,27.7c13.5,23,31.5,53.6,49.5,84.2
					c17.8,30.7,35.7,61.4,49.1,84.4c6.7,11.5,12.2,21.1,16.1,27.9c3.9,6.7,6.1,10.6,6.1,10.6s-2.3-3.8-6.2-10.5
					c-4-6.7-9.6-16.2-16.4-27.7c-13.5-23-31.5-53.6-49.5-84.2c-17.8-30.7-35.7-61.4-49.1-84.4C876.4,69,870.9,59.4,867,52.6
					C863.1,45.9,860.9,42,860.9,42z"/>
			</g>
			<g>
				<path class="st2" d="M750.2,178.2c0,0,11.6-6.9,28.9-17.2c8.7-5.1,18.8-11.1,29.7-17.5c10.9-6.4,22.5-13.2,34.1-20
					s23.3-13.5,34.2-19.9c10.9-6.3,21.1-12.2,29.9-17.3c17.5-10,29.2-16.7,29.2-16.7s-11.6,6.9-28.9,17.2
					c-8.7,5.1-18.8,11.1-29.7,17.5s-22.5,13.2-34.1,20s-23.3,13.5-34.2,19.9c-10.9,6.3-21.1,12.2-29.9,17.3
					C761.9,171.5,750.2,178.2,750.2,178.2z"/>
			</g>
			<g>
				<path class="st3" d="M974,51.1"/>
			</g>
			<g>
				<path class="st3" d="M848.1,183.9"/>
			</g>
			<g>
				<path class="st2" d="M783.2,217.4c0,0,11.6-6.9,28.9-17.2c8.7-5.1,18.8-11.1,29.7-17.5s22.5-13.2,34.1-20s23.3-13.5,34.2-19.9
					c10.9-6.3,21.1-12.2,29.9-17.3c17.5-10,29.2-16.7,29.2-16.7s-11.6,6.9-28.9,17.2c-8.7,5.1-18.8,11.1-29.7,17.5
					s-22.5,13.2-34.1,20s-23.3,13.5-34.2,19.9c-10.9,6.3-21.1,12.2-29.9,17.3C794.9,210.7,783.2,217.4,783.2,217.4z"/>
			</g>
			<g>
				<path class="st2" d="M795.2,234.3c0,0,11.6-6.9,28.9-17.2c8.7-5.1,18.8-11.1,29.7-17.5s22.5-13.2,34.1-20s23.3-13.5,34.2-19.9
					c10.9-6.3,21.1-12.2,29.9-17.3c17.5-10,29.2-16.7,29.2-16.7s-11.6,6.9-28.9,17.2c-8.7,5.1-18.8,11.1-29.7,17.5
					c-10.9,6.4-22.5,13.2-34.1,20s-23.3,13.5-34.2,19.9c-10.9,6.3-21.1,12.2-29.9,17.3C806.9,227.6,795.2,234.3,795.2,234.3z"/>
			</g>
		</g>
	</g>
	<g>
		<g>
			
				<image style="overflow:visible;opacity:0.75;enable-background:new    ;" width="1788" height="1688" xlink:href="717CF298.png"  transform="matrix(0.2393 0 0 0.239 1314.5199 429.2668)">
			</image>
			<g>
				
					<rect x="1403.7" y="464.4" transform="matrix(-0.546 -0.8378 0.8378 -0.546 1832.8567 2251.0854)" class="st1" width="245.4" height="329.1"/>
			</g>
		</g>
		<g>
			<g>
				<path class="st2" d="M1428.4,564.2c0,0,7.8,11.3,19.6,28.4c5.8,8.5,12.7,18.5,20,29.1c7.3,10.7,15,22.1,22.8,33.5
					c7.7,11.4,15.5,22.8,22.7,33.5s14,20.7,19.7,29.3c11.5,17.2,19.1,28.7,19.1,28.7s-7.8-11.3-19.6-28.4
					c-5.8-8.5-12.7-18.5-20-29.1c-7.3-10.7-15-22.1-22.8-33.5c-7.7-11.4-15.5-22.8-22.7-33.5s-14-20.7-19.7-29.3
					C1436,575.7,1428.4,564.2,1428.4,564.2z"/>
			</g>
			<g>
				<path class="st2" d="M1440.2,553.1c0,0,7.8,11.3,19.6,28.4c5.8,8.5,12.7,18.5,20,29.1c7.3,10.7,15,22.1,22.8,33.5
					c7.7,11.4,15.5,22.8,22.7,33.5s14,20.7,19.7,29.3c11.5,17.2,19.1,28.7,19.1,28.7s-7.8-11.3-19.6-28.4
					c-5.8-8.5-12.7-18.5-20-29.1c-7.3-10.7-15-22.1-22.8-33.5c-7.7-11.4-15.5-22.8-22.7-33.5s-14-20.7-19.7-29.3
					C1447.8,564.5,1440.2,553.1,1440.2,553.1z"/>
			</g>
			<g>
				<path class="st2" d="M1488.7,528.4c0,0,7.8,11.3,19.6,28.4c5.8,8.5,12.7,18.5,20,29.1c7.3,10.7,15,22.1,22.8,33.5
					c7.7,11.4,15.5,22.8,22.7,33.5s14,20.7,19.7,29.3c11.5,17.2,19.1,28.7,19.1,28.7s-7.8-11.3-19.6-28.4
					c-5.8-8.5-12.7-18.5-20-29.1c-7.3-10.7-15-22.1-22.8-33.5c-7.7-11.4-15.5-22.8-22.7-33.5s-14-20.7-19.7-29.3
					C1496.4,539.9,1488.7,528.4,1488.7,528.4z"/>
			</g>
			<g>
				<path class="st2" d="M1513.6,516.1c0,0,7.8,11.3,19.6,28.4c5.8,8.5,12.7,18.5,20,29.1c7.3,10.7,15,22.1,22.8,33.5
					c7.7,11.4,15.5,22.8,22.7,33.5s14,20.7,19.7,29.3c11.5,17.2,19.1,28.7,19.1,28.7s-7.8-11.3-19.6-28.4
					c-5.8-8.5-12.7-18.5-20-29.1c-7.3-10.7-15-22.1-22.8-33.5c-7.7-11.4-15.5-22.8-22.7-33.5s-14-20.7-19.7-29.3
					C1521.3,527.5,1513.6,516.1,1513.6,516.1z"/>
			</g>
			<g>
				<path class="st2" d="M1463.2,543.2c0,0,7.8,11.3,19.6,28.4c5.8,8.5,12.7,18.5,20,29.1c7.3,10.7,15,22.1,22.8,33.5
					c7.7,11.4,15.5,22.8,22.7,33.5s14,20.7,19.7,29.3c11.5,17.2,19.1,28.7,19.1,28.7s-7.8-11.3-19.6-28.4
					c-5.8-8.5-12.7-18.5-20-29.1c-7.3-10.7-15-22.1-22.8-33.5c-7.7-11.4-15.5-22.8-22.7-33.5s-14-20.7-19.7-29.3
					C1470.8,554.7,1463.2,543.2,1463.2,543.2z"/>
			</g>
			<g>
				<path class="st2" d="M1408,577.6c0,0,7.8,11.3,19.6,28.4c5.8,8.5,12.7,18.5,20,29.1c7.3,10.7,15,22.1,22.8,33.5
					c7.7,11.4,15.5,22.8,22.7,33.5s14,20.7,19.7,29.3c11.5,17.2,19.1,28.7,19.1,28.7s-7.8-11.3-19.6-28.4
					c-5.8-8.5-12.7-18.5-20-29.1c-7.3-10.7-15-22.1-22.8-33.5c-7.7-11.4-15.5-22.8-22.7-33.5s-14-20.7-19.7-29.3
					C1415.6,589.1,1408,577.6,1408,577.6z"/>
			</g>
			<g>
				<path class="st2" d="M1435.6,627.8c0,0,8.5-6,21.4-15c6.4-4.5,13.9-9.7,22-15.3s16.6-11.5,25.2-17.4s17.2-11.8,25.3-17.3
					c8.1-5.5,15.7-10.6,22.1-15c13-8.7,21.7-14.5,21.7-14.5s-8.5,6-21.4,15c-6.4,4.5-13.9,9.7-22,15.3s-16.6,11.5-25.2,17.4
					s-17.2,11.8-25.3,17.3c-8.1,5.5-15.7,10.6-22.1,15C1444.2,621.9,1435.6,627.8,1435.6,627.8z"/>
			</g>
			<g>
				<path class="st2" d="M1463.2,656.4c0,0,8.5-6,21.4-15c6.4-4.5,13.9-9.7,22-15.3s16.6-11.5,25.2-17.4s17.2-11.8,25.3-17.3
					c8.1-5.5,15.7-10.6,22.1-15c13-8.7,21.7-14.5,21.7-14.5s-8.5,6-21.4,15c-6.4,4.5-13.9,9.7-22,15.3s-16.6,11.5-25.2,17.4
					s-17.2,11.8-25.3,17.3c-8.1,5.5-15.7,10.6-22.1,15C1471.8,650.6,1463.2,656.4,1463.2,656.4z"/>
			</g>
			<g>
				<path class="st2" d="M1473.4,668.8c0,0,8.5-6,21.4-15c6.4-4.5,13.9-9.7,22-15.3s16.6-11.5,25.2-17.4s17.2-11.8,25.3-17.3
					c8.1-5.5,15.7-10.6,22.1-15c13-8.7,21.7-14.5,21.7-14.5s-8.5,6-21.4,15c-6.4,4.5-13.9,9.7-22,15.3s-16.6,11.5-25.2,17.4
					s-17.2,11.8-25.3,17.3c-8.1,5.5-15.7,10.6-22.1,15C1482,663,1473.4,668.8,1473.4,668.8z"/>
			</g>
			<g>
				<path class="st2" d="M1481.9,708c0,0,8.5-6,21.4-15c6.4-4.5,13.9-9.7,22-15.3s16.6-11.5,25.2-17.4s17.2-11.8,25.3-17.3
					c8.1-5.5,15.7-10.6,22.1-15c13-8.7,21.7-14.5,21.7-14.5s-8.5,6-21.4,15c-6.4,4.5-13.9,9.7-22,15.3s-16.6,11.5-25.2,17.4
					s-17.2,11.8-25.3,17.3c-8.1,5.5-15.7,10.6-22.1,15C1490.6,702.2,1481.9,708,1481.9,708z"/>
			</g>
		</g>
		<ellipse class="st5" cx="1521.3" cy="601.6" rx="27.1" ry="26.2"/>
		<ellipse class="st5" cx="1499.2" cy="617.3" rx="27.1" ry="26.2"/>
		<ellipse class="st5" cx="1544.7" cy="631.5" rx="27.1" ry="26.2"/>
		<ellipse class="st5" cx="1521.3" cy="650.5" rx="27.1" ry="26.2"/>
	</g>
	<g>
		<g>
			
				<image style="overflow:visible;opacity:0.75;enable-background:new    ;" width="1758" height="1783" xlink:href="717CF2A6.png"  transform="matrix(0.2397 0 0 0.2392 879.3515 225.0402)">
			</image>
			<g>
				
					<rect x="965.3" y="271.7" transform="matrix(-0.7374 -0.6755 0.6755 -0.7374 1595.6075 1492.9319)" class="st1" width="245.4" height="329.1"/>
			</g>
		</g>
		<g>
			<g>
				<path class="st3" d="M1142.5,543.9"/>
			</g>
			<g>
				<path class="st3" d="M977,398"/>
			</g>
			<g>
				<path class="st2" d="M995.9,374.3c0,0,10.4,9,26,22.6c7.8,6.8,16.9,14.7,26.6,23.2s20.1,17.6,30.4,26.7
					c10.3,9.1,20.7,18.3,30.3,26.8c9.7,8.6,18.7,16.6,26.4,23.5c15.4,13.8,25.7,23,25.7,23s-10.4-9-26-22.6
					c-7.8-6.8-16.9-14.7-26.6-23.2c-9.7-8.5-20.1-17.6-30.4-26.7s-20.7-18.3-30.3-26.8c-9.7-8.6-18.7-16.6-26.4-23.5
					C1006.2,383.5,995.9,374.3,995.9,374.3z"/>
			</g>
			<g>
				<path class="st3" d="M1192,494.2"/>
			</g>
			<g>
				<path class="st3" d="M1026.5,348.3"/>
			</g>
			<g>
				<path class="st2" d="M1047.5,330.1c0,0,10.4,9,26,22.6c7.8,6.8,16.9,14.7,26.6,23.2c9.7,8.5,20.1,17.6,30.4,26.7
					s20.7,18.3,30.3,26.8c9.7,8.6,18.7,16.6,26.4,23.5c15.4,13.8,25.7,23,25.7,23s-10.4-9-26-22.6c-7.8-6.8-16.9-14.7-26.6-23.2
					s-20.1-17.6-30.4-26.7c-10.3-9.1-20.7-18.3-30.3-26.8c-9.7-8.6-18.7-16.6-26.4-23.5C1057.8,339.3,1047.5,330.1,1047.5,330.1z"/>
			</g>
			<g>
				<path class="st2" d="M1012.6,362.2c0,0,10.4,9,26,22.6c7.8,6.8,16.9,14.7,26.6,23.2s20.1,17.6,30.4,26.7
					c10.3,9.1,20.7,18.3,30.3,26.8c9.7,8.6,18.7,16.6,26.4,23.5c15.4,13.8,25.7,23,25.7,23s-10.4-9-26-22.6
					c-7.8-6.8-16.9-14.7-26.6-23.2c-9.7-8.5-20.1-17.6-30.4-26.7s-20.7-18.3-30.3-26.8c-9.7-8.6-18.7-16.6-26.4-23.5
					C1022.8,371.4,1012.6,362.2,1012.6,362.2z"/>
			</g>
			<g>
				<path class="st2" d="M960.5,416c0,0,10.4,9,26,22.6c7.8,6.8,16.9,14.7,26.6,23.2c9.7,8.5,20.1,17.6,30.4,26.7
					s20.7,18.3,30.3,26.8c9.7,8.6,18.7,16.6,26.4,23.5c15.4,13.8,25.7,23,25.7,23s-10.4-9-26-22.6c-7.8-6.8-16.9-14.7-26.6-23.2
					c-9.7-8.5-20.1-17.6-30.4-26.7c-10.3-9.1-20.7-18.3-30.3-26.8c-9.7-8.6-18.7-16.6-26.4-23.5C970.8,425.2,960.5,416,960.5,416z"
					/>
			</g>
			<g>
				<path class="st2" d="M945.6,435.7c0,0,10.4,9,26,22.6c7.8,6.8,16.9,14.7,26.6,23.2c9.7,8.5,20.1,17.6,30.4,26.7
					c10.3,9.1,20.7,18.3,30.3,26.8c9.7,8.6,18.7,16.6,26.4,23.5c15.4,13.8,25.7,23,25.7,23s-10.4-9-26-22.6
					c-7.8-6.8-16.9-14.7-26.6-23.2c-9.7-8.5-20.1-17.6-30.4-26.7c-10.3-9.1-20.7-18.3-30.3-26.8c-9.7-8.6-18.7-16.6-26.4-23.5
					C955.9,444.9,945.6,435.7,945.6,435.7z"/>
			</g>
			<g>
				<path class="st2" d="M999.7,457.7c0,0,6.8-7.9,16.9-19.8c5.1-5.9,11.1-12.8,17.5-20.2c6.4-7.4,13.3-15.3,20.1-23.1
					c6.9-7.8,13.8-15.7,20.2-23c6.5-7.3,12.5-14.2,17.7-20c10.4-11.7,17.4-19.5,17.4-19.5s-6.8,7.9-16.9,19.8
					c-5.1,5.9-11.1,12.8-17.5,20.2c-6.4,7.4-13.3,15.3-20.1,23.1c-6.9,7.8-13.8,15.7-20.2,23c-6.5,7.3-12.5,14.2-17.7,20
					C1006.7,450,999.7,457.7,999.7,457.7z"/>
			</g>
			<g>
				<path class="st2" d="M1080.2,559.7c0,0,6.8-7.9,16.9-19.8c5.1-5.9,11.1-12.8,17.5-20.2c6.4-7.4,13.3-15.3,20.1-23.1
					c6.9-7.8,13.8-15.7,20.2-23c6.5-7.3,12.5-14.2,17.7-20c10.5-11.8,17.4-19.6,17.4-19.6s-6.8,7.9-16.9,19.8
					c-5.1,5.9-11.1,12.8-17.5,20.2c-6.4,7.4-13.3,15.3-20.1,23.1c-6.9,7.8-13.8,15.7-20.2,23c-6.5,7.3-12.5,14.2-17.7,20
					C1087.2,551.9,1080.2,559.7,1080.2,559.7z"/>
			</g>
			<g>
				<path class="st2" d="M1027.2,481.8c0,0,6.8-7.9,16.9-19.8c5.1-5.9,11.1-12.8,17.5-20.2c6.4-7.4,13.3-15.3,20.1-23.1
					c6.9-7.8,13.8-15.7,20.2-23c6.5-7.3,12.5-14.2,17.7-20c10.4-11.7,17.4-19.5,17.4-19.5s-6.8,7.9-16.9,19.8
					c-5.1,5.9-11.1,12.8-17.5,20.2c-6.4,7.4-13.3,15.3-20.1,23.1c-6.9,7.8-13.8,15.7-20.2,23c-6.5,7.3-12.5,14.2-17.7,20
					C1034.1,474,1027.2,481.8,1027.2,481.8z"/>
			</g>
			<g>
				<path class="st2" d="M1027.4,537.3c0,0,8.8-10.2,21.9-25.4c6.6-7.6,14.3-16.5,22.5-26c8.3-9.5,17.1-19.6,25.9-29.7
					c8.9-10.1,17.7-20.2,26-29.6s16.1-18.2,22.8-25.8c13.4-15,22.3-25,22.3-25s-8.8,10.2-21.9,25.4c-6.6,7.6-14.3,16.5-22.5,26
					c-8.3,9.5-17.1,19.6-25.9,29.7c-8.9,10.1-17.7,20.2-26,29.6s-16.1,18.2-22.8,25.8C1036.3,527.3,1027.4,537.3,1027.4,537.3z"/>
			</g>
			<g>
				<path class="st2" d="M1046.6,544.3c0,0,7.9-9.2,19.8-23c6-6.9,12.9-14.9,20.4-23.5s15.4-17.7,23.4-26.9c8-9.1,16-18.2,23.5-26.8
					c7.5-8.5,14.6-16.5,20.6-23.3c12.1-13.6,20.2-22.6,20.2-22.6s-7.9,9.2-19.8,23c-6,6.9-12.9,14.9-20.4,23.5s-15.4,17.7-23.4,26.9
					c-8,9.1-16,18.2-23.5,26.8c-7.5,8.5-14.6,16.5-20.6,23.3C1054.7,535.2,1046.6,544.3,1046.6,544.3z"/>
			</g>
		</g>
		
			<ellipse transform="matrix(-0.2489 -0.9685 0.9685 -0.2489 956.1946 1562.3063)" class="st5" cx="1083.9" cy="410.4" rx="26.2" ry="27.1"/>
		
			<ellipse transform="matrix(-0.2489 -0.9685 0.9685 -0.2489 896.2093 1564.6001)" class="st5" cx="1054.8" cy="434.8" rx="26.2" ry="27.1"/>
		
			<ellipse transform="matrix(-0.2489 -0.9685 0.9685 -0.2489 992.0661 1603.6998)" class="st5" cx="1117.9" cy="417.2" rx="26.2" ry="27.1"/>
		
			<ellipse transform="matrix(-0.2489 -0.9685 0.9685 -0.2489 968.2806 1667.8928)" class="st5" cx="1130.9" cy="458.5" rx="26.2" ry="27.1"/>
		
			<ellipse transform="matrix(-0.2489 -0.9685 0.9685 -0.2489 911.6573 1680.3342)" class="st5" cx="1107.4" cy="486.7" rx="26.2" ry="27.1"/>
		
			<ellipse transform="matrix(-0.2489 -0.9685 0.9685 -0.2489 875.5884 1626.79)" class="st5" cx="1068.6" cy="473.9" rx="26.2" ry="27.1"/>
	</g>
	<g>
		<g>
			<g>
				
					<image style="overflow:visible;opacity:0.75;enable-background:new    ;" width="1375" height="1638" xlink:href="717CF2A9.png"  transform="matrix(0.239 0 0 0.2394 1065.9048 450.2248)">
				</image>
				<g>
					
						<rect x="1105.4" y="479.7" transform="matrix(-0.9767 0.2147 -0.2147 -0.9767 2565.877 1009.9009)" class="st1" width="245.4" height="329.1"/>
				</g>
			</g>
		</g>
		<g>
			<path class="st2" d="M1183.9,663l-40.5,9.3c-5.2,1.2-10.3-2.1-11.5-7.2L1114,587c-1.2-5.2,2.1-10.3,7.2-11.5l40.5-9.3
				c5.2-1.2,10.3,2.1,11.5,7.2l17.8,78.1C1192.4,656.6,1189.1,661.8,1183.9,663z"/>
			<path class="st2" d="M1252.1,648.4l-40.5,9.3c-5.2,1.2-10.3-2.1-11.5-7.2l-17.8-78.1c-1.2-5.2,2.1-10.3,7.2-11.5l40.5-9.3
				c5.2-1.2,10.3,2.1,11.5,7.2l17.8,78.1C1260.5,642,1257.3,647.2,1252.1,648.4z"/>
			<path class="st2" d="M1318.3,630.9l-40.5,9.3c-5.2,1.2-10.3-2.1-11.5-7.2l-17.8-78.1c-1.2-5.2,2.1-10.3,7.2-11.5l40.5-9.3
				c5.2-1.2,10.3,2.1,11.5,7.2l17.8,78.1C1326.7,624.5,1323.4,629.7,1318.3,630.9z"/>
			<path class="st2" d="M1211.3,773.4l-40.5,9.3c-5.2,1.2-10.3-2.1-11.5-7.2l-17.8-78.1c-1.2-5.2,2.1-10.3,7.2-11.5l40.5-9.3
				c5.2-1.2,10.3,2.1,11.5,7.2l17.8,78.1C1219.7,767.1,1216.5,772.2,1211.3,773.4z"/>
			<path class="st2" d="M1279.5,759l-40.5,9.3c-5.2,1.2-10.3-2.1-11.5-7.2l-17.9-78.1c-1.2-5.2,2.1-10.3,7.2-11.5l40.5-9.3
				c5.2-1.2,10.3,2.1,11.5,7.2l17.8,78.1C1287.9,752.6,1284.6,757.8,1279.5,759z"/>
			<path class="st2" d="M1346.6,745l-40.5,9.3c-5.2,1.2-10.3-2.1-11.5-7.2l-17.8-78.1c-1.2-5.2,2.1-10.3,7.2-11.5l40.5-9.3
				c5.2-1.2,10.3,2.1,11.5,7.2l17.8,78.1C1355,738.6,1351.8,743.8,1346.6,745z"/>
			<path class="st4" d="M1296.2,518l-186.9,43.1c-3.4,0.8-6.8-1.3-7.5-4.7l-1.8-7.7c-0.8-3.4,1.3-6.8,4.7-7.5l186.9-43.1
				c3.4-0.8,6.8,1.3,7.5,4.7l1.8,7.7C1301.7,513.9,1299.6,517.2,1296.2,518z"/>
		</g>
	</g>
	<g>
		<g>
			<g>
				
					<image style="overflow:visible;opacity:0.75;enable-background:new    ;" width="1500" height="1713" xlink:href="717CF2AA.png"  transform="matrix(0.2389 0 0 0.2392 287.0934 330.4586)">
				</image>
				<g>
					
						<rect x="341.5" y="368.7" transform="matrix(-0.9441 -0.3298 0.3298 -0.9441 726.5875 1189.8119)" class="st1" width="245.4" height="329.1"/>
				</g>
			</g>
		</g>
		<g>
			<path class="st2" d="M482.6,548.4l-105.2-35.8c-5-1.7-7.7-7.2-6-12.2l25.8-75.8c1.7-5,7.2-7.7,12.2-6l105.2,35.8
				c5,1.7,7.7,7.2,6,12.2l-25.8,75.8C493.1,547.4,487.6,550.1,482.6,548.4z"/>
			<path class="st2" d="M382.2,634.4L342.8,621c-5-1.7-7.7-7.2-6-12.2l25.8-75.8c1.7-5,7.2-7.7,12.2-6l39.4,13.4
				c5,1.7,7.7,7.2,6,12.2l-25.8,75.8C392.7,633.4,387.2,636.1,382.2,634.4z"/>
			<path class="st2" d="M447.7,657.9l-39.4-13.4c-5-1.7-7.7-7.2-6-12.2l25.8-75.8c1.7-5,7.2-7.7,12.2-6l39.4,13.4
				c5,1.7,7.7,7.2,6,12.2L460,651.9C458.3,656.9,452.8,659.6,447.7,657.9z"/>
			<path class="st2" d="M516,681.5l-39.4-13.4c-5-1.7-7.7-7.2-6-12.2l60.8-178.7c1.7-5,7.2-7.7,12.2-6l39.4,13.4
				c5,1.7,7.7,7.2,6,12.2l-60.8,178.7C526.5,680.5,521,683.2,516,681.5z"/>
			<path class="st2" d="M598.4,463.1l-151.6-51.2c-3.3-1.1-5-4.7-3.9-8l2.5-7.5c1.1-3.3,4.7-5,8-3.9L605,443.7c3.3,1.1,5,4.7,3.9,8
				l-2.5,7.5C605.2,462.4,601.7,464.2,598.4,463.1z"/>
		</g>
	</g>
	<g>
		<g>
			<g>
				
					<image style="overflow:visible;opacity:0.75;enable-background:new    ;" width="1792" height="1692" xlink:href="717CF2A8.png"  transform="matrix(0.2389 0 0 0.2394 136.1371 -67.9313)">
				</image>
				<g>
					
						<rect x="225.5" y="-32" transform="matrix(0.5562 -0.831 0.831 0.5562 44.3732 348.1742)" class="st1" width="245.4" height="329.1"/>
				</g>
			</g>
		</g>
		<g>
			<path class="st4" d="M366.9,88.7l23-34.9c2.9-4.4,8.9-5.7,13.3-2.8l66.9,44c4.4,2.9,5.7,8.9,2.8,13.3l-23,34.9
				c-2.9,4.4-8.9,5.7-13.3,2.8l-66.9-44C365.3,99.1,364,93.1,366.9,88.7z"/>
			<path class="st2" d="M270.9,27.8L293.7-7c2.9-4.4,8.9-5.7,13.3-2.8l67,44.1c4.4,2.9,5.7,8.9,2.8,13.3l-22.9,34.7
				c-2.9,4.5-8.9,5.7-13.4,2.8l-66.9-44C269.2,38.2,268,32.2,270.9,27.8z"/>
			<path class="st2" d="M231.7,85.4l22.8-34.8c2.9-4.4,8.9-5.7,13.3-2.8l66.9,44c4.4,2.9,5.7,8.9,2.8,13.3l-22.8,34.8
				c-2.9,4.4-8.9,5.7-13.3,2.8l-66.9-44C230,95.8,228.8,89.8,231.7,85.4z"/>
			<path class="st2" d="M328.5,147.6l22.8-34.8c2.9-4.4,8.9-5.7,13.3-2.8l66.9,44c4.4,2.9,5.7,8.9,2.8,13.3l-22.8,34.8
				c-2.9,4.4-8.9,5.7-13.3,2.8l-66.9-44C326.8,158.1,325.6,152.1,328.5,147.6z"/>
			<path class="st4" d="M191.6,145.5l22.8-34.8c2.9-4.4,8.9-5.7,13.3-2.8l167,109.8c4.4,2.9,5.7,8.9,2.8,13.3l-22.8,34.8
				c-2.9,4.4-8.9,5.7-13.3,2.8l-167-109.8C190,155.9,188.7,149.9,191.6,145.5z"/>
			<path class="st2" d="M382.4,280.1l107.3-164c1.9-2.9,5.8-3.7,8.7-1.8l6.6,4.3c2.9,1.9,3.7,5.8,1.8,8.7l-107.3,164
				c-1.9,2.9-5.8,3.7-8.7,1.8l-6.6-4.3C381.4,286.9,380.5,283,382.4,280.1z"/>
		</g>
	</g>
	<g>
		<g>
			<g>
				
					<image style="overflow:visible;opacity:0.75;enable-background:new    ;" width="1496" height="1713" xlink:href="670F109D.png"  transform="matrix(0.2395 0 0 0.2392 742.5513 546.4301)">
				</image>
				<g>
					
						<rect x="797" y="584.7" transform="matrix(-0.9441 -0.3298 0.3298 -0.9441 1540.8729 1760.0015)" class="st1" width="245.4" height="329.1"/>
				</g>
			</g>
		</g>
		<g>
			<path class="st2" d="M938.1,764.4l-105.2-35.8c-5-1.7-7.7-7.2-6-12.2l25.8-75.8c1.7-5,7.2-7.7,12.2-6l105.2,35.8
				c5,1.7,7.7,7.2,6,12.2l-25.8,75.8C948.6,763.4,943.1,766.1,938.1,764.4z"/>
			<path class="st2" d="M837.6,850.4L798.2,837c-5-1.7-7.7-7.2-6-12.2L818,749c1.7-5,7.2-7.7,12.2-6l39.4,13.4c5,1.7,7.7,7.2,6,12.2
				l-25.8,75.8C848.1,849.4,842.6,852.1,837.6,850.4z"/>
			<path class="st2" d="M903.2,873.9l-39.4-13.4c-5-1.7-7.7-7.2-6-12.2l25.8-75.8c1.7-5,7.2-7.7,12.2-6l39.4,13.4
				c5,1.7,7.7,7.2,6,12.2l-25.8,75.8C913.7,872.9,908.2,875.6,903.2,873.9z"/>
			<path class="st4" d="M971.4,897.5L932,884.1c-5-1.7-7.7-7.2-6-12.2l60.8-178.7c1.7-5,7.2-7.7,12.2-6l39.4,13.4
				c5,1.7,7.7,7.2,6,12.2l-60.8,178.7C981.9,896.5,976.4,899.2,971.4,897.5z"/>
			<path class="st4" d="M1053.8,679l-185.2-62.6c-3.3-1.1-5-4.7-3.9-8l2.5-7.5c1.1-3.3,4.7-5,8-3.9l185.2,62.6c3.3,1.1,5,4.7,3.9,8
				l-2.5,7.5C1060.7,678.4,1057.1,680.1,1053.8,679z"/>
		</g>
	</g>
	<g>
		<g>
			
				<image style="overflow:visible;opacity:0.75;enable-background:new    ;" width="1708" height="1492" xlink:href="670F1093.png"  transform="matrix(0.2394 0 0 0.239 232.4515 173.3943)">
			</image>
			<g>
				<path class="st1" d="M239.5,286.6l79.2,232.3l311.5-106.3L551,180.4L239.5,286.6z"/>
			</g>
		</g>
		<g>
			<g>
				<path class="st2" d="M325.9,466.8c0,0,4.2-1.5,11.5-4.1c7.3-2.6,17.8-6.4,30.3-10.9c25.1-8.9,58.6-20.8,92-32.6
					c33.5-11.7,67-23.4,92.2-32.2c12.6-4.3,23.1-8,30.4-10.5s11.5-4,11.5-4s-4.2,1.5-11.5,4.1s-17.8,6.4-30.3,10.9
					c-25.1,8.9-58.6,20.8-92,32.6c-33.5,11.7-67,23.4-92.2,32.2c-12.6,4.3-23.1,8-30.4,10.5C330.1,465.3,325.9,466.8,325.9,466.8z"
					/>
			</g>
			<g>
				<path class="st2" d="M316,448.3c0,0,4.2-1.5,11.5-4.1s17.8-6.4,30.3-10.9c25.1-8.9,58.6-20.8,92-32.6
					c33.5-11.7,67-23.4,92.2-32.2c12.6-4.3,23.1-8,30.4-10.5c7.3-2.5,11.5-4,11.5-4s-4.2,1.5-11.5,4.1c-7.3,2.6-17.8,6.4-30.3,10.9
					c-25.1,8.9-58.6,20.8-92,32.6c-33.5,11.7-67,23.4-92.2,32.2c-12.6,4.3-23.1,8-30.4,10.5C320.2,446.9,316,448.3,316,448.3z"/>
			</g>
			<g>
				<path class="st2" d="M301.5,379.5c0,0,4.2-1.5,11.5-4.1s17.8-6.4,30.3-10.9c25.1-8.9,58.6-20.8,92-32.6
					c33.5-11.7,67-23.4,92.2-32.2c12.6-4.3,23.1-8,30.4-10.5c7.3-2.5,11.5-4,11.5-4s-4.2,1.5-11.5,4.1c-7.3,2.6-17.8,6.4-30.3,10.9
					c-25.1,8.9-58.6,20.8-92,32.6c-33.5,11.7-67,23.4-92.2,32.2c-12.6,4.3-23.1,8-30.4,10.5C305.7,378.1,301.5,379.5,301.5,379.5z"
					/>
			</g>
			<g>
				<path class="st2" d="M294.4,344.4c0,0,4.2-1.5,11.5-4.1c7.3-2.6,17.8-6.4,30.3-10.9c25.1-8.9,58.6-20.8,92-32.6
					c33.5-11.7,67-23.4,92.2-32.2c12.6-4.3,23.1-8,30.4-10.5c7.3-2.5,11.5-4,11.5-4s-4.2,1.5-11.5,4.1c-7.3,2.6-17.8,6.4-30.3,10.9
					c-25.1,8.9-58.6,20.8-92,32.6c-33.5,11.7-67,23.4-92.2,32.2c-12.6,4.3-23.1,8-30.4,10.5S294.4,344.4,294.4,344.4z"/>
			</g>
			<g>
				<path class="st2" d="M407.2,478.8c0,0-4.6-12.7-11.4-31.7c-3.4-9.5-7.4-20.6-11.6-32.5c-4.2-11.9-8.7-24.6-13.2-37.3
					c-4.4-12.7-8.9-25.4-13.1-37.3c-4.1-11.9-8-23-11.3-32.6c-6.5-19.1-10.9-31.8-10.9-31.8s4.6,12.7,11.4,31.7
					c3.4,9.5,7.4,20.6,11.6,32.5c4.2,11.9,8.7,24.6,13.2,37.3c4.4,12.7,8.9,25.4,13.1,37.3c4.1,11.9,8,23,11.3,32.6
					C402.8,466.1,407.2,478.8,407.2,478.8z"/>
			</g>
			<g>
				<path class="st2" d="M452,453.9c0,0-4.6-12.7-11.4-31.7c-3.4-9.5-7.4-20.6-11.6-32.5s-8.7-24.6-13.2-37.3
					c-4.4-12.7-8.9-25.4-13.1-37.3c-4.1-11.9-8-23-11.3-32.6c-6.5-19.1-10.9-31.8-10.9-31.8s4.6,12.7,11.4,31.7
					c3.4,9.5,7.4,20.6,11.6,32.5s8.7,24.6,13.2,37.3c4.4,12.7,8.9,25.4,13.1,37.3c4.1,11.9,8,23,11.3,32.6
					C447.6,441.1,452,453.9,452,453.9z"/>
			</g>
			<g>
				<path class="st2" d="M470.8,445.3c0,0-4.6-12.7-11.4-31.7c-3.4-9.5-7.4-20.6-11.6-32.5c-4.2-11.9-8.7-24.6-13.2-37.3
					c-4.4-12.7-8.9-25.4-13.1-37.3c-4.1-11.9-8-23-11.3-32.6c-6.5-19.1-10.9-31.8-10.9-31.8s4.6,12.7,11.4,31.7
					c3.4,9.5,7.4,20.6,11.6,32.5s8.7,24.6,13.2,37.3c4.4,12.7,8.9,25.4,13.1,37.3c4.1,11.9,8,23,11.3,32.6
					C466.5,432.5,470.8,445.3,470.8,445.3z"/>
			</g>
			<g>
				<path class="st2" d="M529.2,429.6c0,0-4.6-12.7-11.4-31.7c-3.4-9.5-7.4-20.6-11.6-32.5s-8.7-24.6-13.2-37.3
					c-4.4-12.7-8.9-25.4-13.1-37.3c-4.1-11.9-8-23-11.3-32.6c-6.5-19.1-10.9-31.8-10.9-31.8s4.6,12.7,11.4,31.7
					c3.4,9.5,7.4,20.6,11.6,32.5c4.2,11.9,8.7,24.6,13.2,37.3c4.4,12.7,8.9,25.4,13.1,37.3c4.1,11.9,8,23,11.3,32.6
					C524.8,416.8,529.2,429.6,529.2,429.6z"/>
			</g>
			<g>
				<path class="st2" d="M550,421.2c0,0-4.6-12.7-11.4-31.7c-3.4-9.5-7.4-20.6-11.6-32.5s-8.7-24.6-13.2-37.3
					c-4.4-12.7-8.9-25.4-13.1-37.3c-4.1-11.9-8-23-11.3-32.6c-6.5-19.1-10.9-31.8-10.9-31.8s4.6,12.7,11.4,31.7
					c3.4,9.5,7.4,20.6,11.6,32.5s8.7,24.6,13.2,37.3c4.4,12.7,8.9,25.4,13.1,37.3c4.1,11.9,8,23,11.3,32.6
					C545.6,408.5,550,421.2,550,421.2z"/>
			</g>
		</g>
	</g>
	<g>
		<g>
			
				<image style="overflow:visible;opacity:0.75;enable-background:new    ;" width="1767" height="1625" xlink:href="670F1095.png"  transform="matrix(0.2397 0 0 0.2391 328.3087 550.1796)">
			</image>
			<g>
				<path class="st1" d="M335.3,710.5l114.3,217.1l291.2-153.4l-114.3-217L335.3,710.5z"/>
			</g>
		</g>
		<g>
			<g>
				<path class="st2" d="M448.7,875c0,0,3.9-2.1,10.7-5.9c6.8-3.7,16.6-9,28.2-15.4c23.4-12.7,54.6-29.6,85.8-46.5
					c31.3-16.8,62.6-33.6,86.1-46.1c11.8-6.3,21.6-11.5,28.4-15.1c6.9-3.6,10.8-5.7,10.8-5.7s-3.9,2.1-10.7,5.9
					c-6.8,3.7-16.6,9-28.2,15.4c-23.4,12.7-54.6,29.6-85.8,46.5c-31.3,16.8-62.6,33.6-86.1,46.1c-11.8,6.3-21.6,11.5-28.4,15.1
					C452.6,873,448.7,875,448.7,875z"/>
			</g>
			<g>
				<path class="st2" d="M436,858.4c0,0,3.9-2.1,10.7-5.9c6.8-3.7,16.6-9,28.2-15.4c23.4-12.7,54.6-29.6,85.8-46.5
					c31.3-16.8,62.6-33.6,86.1-46.1c11.8-6.3,21.6-11.5,28.4-15.1c6.9-3.6,10.8-5.7,10.8-5.7s-3.9,2.1-10.7,5.9
					c-6.8,3.7-16.6,9-28.2,15.4c-23.4,12.7-54.6,29.6-85.8,46.5c-31.3,16.8-62.6,33.6-86.1,46.1c-11.8,6.3-21.6,11.5-28.4,15.1
					C439.9,856.3,436,858.4,436,858.4z"/>
			</g>
			<g>
				<path class="st2" d="M411.1,792.7c0,0,3.9-2.1,10.7-5.9c6.8-3.7,16.6-9,28.2-15.4c23.4-12.7,54.6-29.6,85.8-46.5
					c31.3-16.8,62.6-33.6,86.1-46.1c11.8-6.3,21.6-11.5,28.4-15.1c6.9-3.6,10.8-5.7,10.8-5.7s-3.9,2.1-10.7,5.9
					c-6.8,3.7-16.6,9-28.2,15.4c-23.4,12.7-54.6,29.6-85.8,46.5c-31.3,16.8-62.6,33.6-86.1,46.1c-11.8,6.3-21.6,11.5-28.4,15.1
					C415,790.6,411.1,792.7,411.1,792.7z"/>
			</g>
			<g>
				<path class="st2" d="M427.1,813.5c0,0,3.9-2.1,10.7-5.9c6.8-3.7,16.6-9,28.2-15.4c23.4-12.7,54.6-29.6,85.8-46.5
					c31.3-16.8,62.6-33.6,86.1-46.1c11.8-6.3,21.6-11.5,28.4-15.1c6.9-3.6,10.8-5.7,10.8-5.7s-3.9,2.1-10.7,5.9
					c-6.8,3.7-16.6,9-28.2,15.4c-23.4,12.7-54.6,29.6-85.8,46.5c-31.3,16.8-62.6,33.6-86.1,46.1c-11.8,6.3-21.6,11.5-28.4,15.1
					C431,811.4,427.1,813.5,427.1,813.5z"/>
			</g>
			<g>
				<path class="st2" d="M398.6,759c0,0,3.9-2.1,10.7-5.9c6.8-3.7,16.6-9,28.2-15.4c23.4-12.7,54.6-29.6,85.8-46.5
					c31.3-16.8,62.6-33.6,86.1-46.1c11.8-6.3,21.6-11.5,28.4-15.1c6.9-3.6,10.8-5.7,10.8-5.7s-3.9,2.1-10.7,5.9
					c-6.8,3.7-16.6,9-28.2,15.4c-23.4,12.7-54.6,29.6-85.8,46.5c-31.3,16.8-62.6,33.6-86.1,46.1c-11.8,6.3-21.6,11.5-28.4,15.1
					C402.5,757,398.6,759,398.6,759z"/>
			</g>
			<g>
				<path class="st2" d="M530.9,874.3c0,0-6.5-11.8-16.2-29.5c-4.8-8.9-10.5-19.2-16.5-30.3s-12.4-22.9-18.8-34.8
					c-6.4-11.9-12.7-23.7-18.7-34.8c-5.9-11.1-11.5-21.5-16.2-30.4c-9.4-17.9-15.7-29.8-15.7-29.8s6.5,11.8,16.2,29.5
					c4.8,8.9,10.5,19.2,16.5,30.3s12.4,22.9,18.8,34.8c6.4,11.9,12.7,23.7,18.7,34.8c5.9,11.1,11.5,21.5,16.2,30.4
					C524.6,862.4,530.9,874.3,530.9,874.3z"/>
			</g>
			<g>
				<path class="st2" d="M571.2,842.7c0,0-6.5-11.8-16.2-29.5c-4.8-8.9-10.5-19.2-16.5-30.3s-12.4-22.9-18.8-34.8
					c-6.4-11.9-12.7-23.7-18.7-34.8c-5.9-11.1-11.5-21.5-16.2-30.4c-9.4-17.9-15.7-29.8-15.7-29.8s6.5,11.8,16.2,29.5
					c4.8,8.9,10.5,19.2,16.5,30.3s12.4,22.9,18.8,34.8c6.4,11.9,12.7,23.7,18.7,34.8c5.9,11.1,11.5,21.5,16.2,30.4
					C564.9,830.8,571.2,842.7,571.2,842.7z"/>
			</g>
			<g>
				<path class="st2" d="M588.5,831.3c0,0-6.5-11.8-16.2-29.5c-4.8-8.9-10.5-19.2-16.5-30.3s-12.4-22.9-18.8-34.8
					c-6.4-11.9-12.7-23.7-18.7-34.8c-5.9-11.1-11.5-21.5-16.2-30.4c-9.4-17.9-15.7-29.8-15.7-29.8s6.5,11.8,16.2,29.5
					c4.8,8.9,10.5,19.2,16.5,30.3s12.4,22.9,18.8,34.8c6.4,11.9,12.7,23.7,18.7,34.8c5.9,11.1,11.5,21.5,16.2,30.4
					C582.2,819.4,588.5,831.3,588.5,831.3z"/>
			</g>
			<g>
				<path class="st2" d="M635.3,814.1c0,0-6.5-11.8-16.2-29.5c-4.8-8.9-10.5-19.2-16.5-30.3s-12.4-22.9-18.8-34.8
					c-6.4-11.9-12.7-23.7-18.7-34.8c-5.9-11.1-11.5-21.5-16.2-30.4c-9.4-17.9-15.7-29.8-15.7-29.8s6.5,11.8,16.2,29.5
					c4.8,8.9,10.5,19.2,16.5,30.3s12.4,22.9,18.8,34.8c6.4,11.9,12.7,23.7,18.7,34.8c5.9,11.1,11.5,21.5,16.2,30.4
					C629,802.2,635.3,814.1,635.3,814.1z"/>
			</g>
			<g>
				<path class="st2" d="M653.4,800c0,0-6.5-11.8-16.2-29.5c-4.8-8.9-10.5-19.2-16.5-30.3s-12.4-22.9-18.8-34.8
					c-6.4-11.9-12.7-23.7-18.7-34.8c-5.9-11.1-11.5-21.5-16.2-30.4c-9.4-17.9-15.7-29.8-15.7-29.8s6.5,11.8,16.2,29.5
					c4.8,8.9,10.5,19.2,16.5,30.3s12.4,22.9,18.8,34.8c6.4,11.9,12.7,23.7,18.7,34.8c5.9,11.1,11.5,21.5,16.2,30.4
					C647.1,788.1,653.4,800,653.4,800z"/>
			</g>
			<g>
				<path class="st2" d="M688.6,781.9c0,0-6.5-11.8-16.2-29.5c-4.8-8.9-10.5-19.2-16.5-30.3s-12.4-22.9-18.8-34.8
					c-6.4-11.9-12.7-23.7-18.7-34.8c-5.9-11.1-11.5-21.5-16.2-30.4c-9.4-17.9-15.7-29.8-15.7-29.8s6.5,11.8,16.2,29.5
					c4.8,8.9,10.5,19.2,16.5,30.3s12.4,22.9,18.8,34.8c6.4,11.9,12.7,23.7,18.7,34.8c5.9,11.1,11.5,21.5,16.2,30.4
					C682.3,770,688.6,781.9,688.6,781.9z"/>
			</g>
		</g>
	</g>
	<g>
		<g>
			
				<image style="overflow:visible;opacity:0.75;enable-background:new    ;" width="1675" height="1788" xlink:href="670F1097.png"  transform="matrix(0.2397 0 0 0.2391 1303.4833 82.3296)">
			</image>
			<g>
				
					<rect x="1379.6" y="129.4" transform="matrix(-0.8449 -0.5349 0.5349 -0.8449 2614.3071 1345.8176)" class="st1" width="245.4" height="329.1"/>
			</g>
		</g>
		<path class="st2" d="M1503.5,440.2l-135-86c-2.9-1.9-3.8-5.8-1.9-8.7l112.3-176.3c1.9-2.9,5.8-3.8,8.7-1.9l135,86
			c2.9,1.9,3.8,5.8,1.9,8.7l-112.3,176.3C1510.3,441.2,1506.4,442.1,1503.5,440.2z"/>
		<path class="st4" d="M1626.6,244.2l-135-86c-2.9-1.9-3.8-5.8-1.9-8.7l8.9-14c1.9-2.9,5.8-3.8,8.7-1.9l135,86
			c2.9,1.9,3.8,5.8,1.9,8.7l-8.9,14C1633.4,245.2,1629.5,246,1626.6,244.2z"/>
	</g>
	<g>
		<path class="st3" d="M1400.2,24.5"/>
	</g>
	<g>
		<path class="st3" d="M1257.3,136.6"/>
	</g>
</g>
<g id="devices">
	<g id="lap">
		<g id="charger">
			
				<image style="overflow:visible;opacity:0.75;enable-background:new    ;" width="354" height="500" xlink:href="670F1094.png"  transform="matrix(0.238 0 0 0.239 966.4688 -21.04)">
			</image>
			<g>
				<g>
					<path class="st1" d="M1002.3,61.6v21.2c0,2.4,2,4.4,4.4,4.4h32.9v-30h-32.9C1004.2,57.2,1002.3,59.2,1002.3,61.6z"/>
					<path class="st6" d="M1002.3,72.2h-18c-4.6,0-8.3-3.7-8.3-8.2v-78"/>
				</g>
			</g>
		</g>
		<g id="keyboard">
			<g>
				<g>
					
						<image style="overflow:visible;opacity:0.75;enable-background:new    ;" width="1875" height="1363" xlink:href="670F108C.png"  transform="matrix(0.2396 0 0 0.2391 1032.5308 14.2199)">
					</image>
					<g>
						<path class="st2" d="M1470.7,33.5l-0.2,283.5c0,6.6-5.4,12-12,12l-407-0.3c-6.6,0-12-5.4-12-12l0.2-283.5c0-6.6,5.4-12,12-12
							l407,0.3C1465.3,21.5,1470.7,26.9,1470.7,33.5z"/>
					</g>
				</g>
			</g>
			<path class="st7" d="M1436.3,66.6V203c0,6-4.9,10.9-10.9,10.9l-339.9,0.1c-6,0-10.9-4.9-10.9-10.9V66.7c0-6,4.9-10.9,10.9-10.9
				l339.9-0.1C1431.4,55.7,1436.3,60.6,1436.3,66.6z"/>
			<path class="st7" d="M1315.8,244.3v49.5c0,4.9-4,8.9-8.9,8.9h-93.8c-4.9,0-8.9-4-8.9-8.9v-49.5c0-4.9,4-8.9,8.9-8.9h93.8
				C1311.7,235.3,1315.8,239.3,1315.8,244.3z"/>
			<path class="st4" d="M1111.7,71.5v4.6c0,1.7-1.4,3.1-3.1,3.1h-13.3c-1.7,0-3.1-1.4-3.1-3.1v-4.6c0-1.7,1.4-3.1,1.9-3.1h13.3
				C1110.4,68.4,1111.7,69.8,1111.7,71.5z"/>
			<path class="st4" d="M1135.4,71.2v5.4c0,1.5-1.2,2.7-2.7,2.7h-14c-1.5,0-2.7-1.2-2.7-2.7v-5.4c0-1.5,1.2-2.7,2.7-2.7h14
				C1134.1,68.4,1135.4,69.7,1135.4,71.2z"/>
			<path class="st4" d="M1159,71.2v5.4c0,1.5-1.2,2.7-2.7,2.7h-14c-1.5,0-2.7-1.2-2.7-2.7v-5.4c0-1.5,1.2-2.7,2.7-2.7h14
				C1157.8,68.4,1159,69.7,1159,71.2z"/>
			<path class="st4" d="M1182.6,71.2v5.4c0,1.5-1.2,2.7-2.7,2.7h-14c-1.5,0-2.7-1.2-2.7-2.7v-5.4c0-1.5,1.2-2.7,2.7-2.7h14
				C1181.4,68.4,1182.6,69.7,1182.6,71.2z"/>
			<path class="st4" d="M1206.2,71.2v5.4c0,1.5-1.2,2.7-2.7,2.7h-14c-1.5,0-2.7-1.2-2.7-2.7v-5.4c0-1.5,1.2-2.7,2.7-2.7h14
				C1205,68.4,1206.2,69.7,1206.2,71.2z"/>
			<path class="st4" d="M1229.9,71.5v4.6c0,1.7-1.4,3.1-3.1,3.1h-13.3c-1.7,0-3.1-1.4-3.1-3.1v-4.6c0-1.7,1.4-3.1,1.9-3.1h13.3
				C1228.5,68.4,1229.9,69.8,1229.9,71.5z"/>
			<path class="st4" d="M1253.5,71.2v5.4c0,1.5-1.2,2.7-2.7,2.7h-14c-1.5,0-2.7-1.2-2.7-2.7v-5.4c0-1.5,1.2-2.7,2.7-2.7h14
				C1252.3,68.4,1253.5,69.7,1253.5,71.2z"/>
			<path class="st4" d="M1277.1,71.2v5.4c0,1.5-1.2,2.7-2.7,2.7h-14c-1.5,0-2.7-1.2-2.7-2.7v-5.4c0-1.5,1.2-2.7,2.7-2.7h14
				C1275.9,68.4,1277.1,69.7,1277.1,71.2z"/>
			<path class="st4" d="M1300.7,71.2v5.4c0,1.5-1.2,2.7-2.7,2.7h-14c-1.5,0-2.7-1.2-2.7-2.7v-5.4c0-1.5,1.2-2.7,2.7-2.7h14
				C1299.5,68.4,1300.7,69.7,1300.7,71.2z"/>
			<path class="st4" d="M1324.4,71.2v5.4c0,1.5-1.2,2.7-2.7,2.7h-14c-1.5,0-2.7-1.2-2.7-2.7v-5.4c0-1.5,1.2-2.7,2.7-2.7h14
				C1323.1,68.4,1324.4,69.7,1324.4,71.2z"/>
			<path class="st4" d="M1349,71.2v5.4c0,1.5-1.2,2.7-2.7,2.7h-14c-1.5,0-2.7-1.2-2.7-2.7v-5.4c0-1.5,1.2-2.7,2.7-2.7h14
				C1347.8,68.4,1349,69.7,1349,71.2z"/>
			<path class="st4" d="M1373.8,71.2v5.4c0,1.5-1.2,2.7-2.7,2.7h-14c-1.5,0-2.7-1.2-2.7-2.7v-5.4c0-1.5,1.2-2.7,2.7-2.7h14
				C1372.6,68.4,1373.8,69.7,1373.8,71.2z"/>
			<path class="st4" d="M1397.4,71.2v5.4c0,1.5-1.2,2.7-2.7,2.7h-14c-1.5,0-2.7-1.2-2.7-2.7v-5.4c0-1.5,1.2-2.7,2.7-2.7h14
				C1396.2,68.4,1397.4,69.7,1397.4,71.2z"/>
			<path class="st4" d="M1421.1,71.2v5.4c0,1.5-1.2,2.7-2.7,2.7h-14c-1.5,0-2.7-1.2-2.7-2.7v-5.4c0-1.5,1.2-2.7,2.7-2.7h14
				C1419.8,68.4,1421.1,69.7,1421.1,71.2z"/>
			<path class="st4" d="M1112.6,185.9v12.8c0,2-1.6,3.6-3.7,3.6h-15.1c-2,0-3.6-1.6-3.6-3.7v-12.8c0-2,1.6-3.6,3.7-3.6h15.1
				C1111,182.3,1112.6,183.9,1112.6,185.9z"/>
			<path class="st4" d="M1137.1,185.9v12.8c0,2-1.6,3.6-3.7,3.6h-13.5c-2,0-3.6-1.6-3.6-3.7v-12.8c0-2,1.6-3.6,3.7-3.6h13.5
				C1135.5,182.3,1137.1,183.9,1137.1,185.9z"/>
			<path class="st4" d="M1165.1,185.9v12.8c0,2-1.6,3.6-3.7,3.6h-17.3c-2,0-3.6-1.6-3.6-3.7v-12.8c0-2,1.6-3.6,3.7-3.6h17.3
				C1163.5,182.3,1165.1,183.9,1165.1,185.9z"/>
			<path class="st4" d="M1324.1,88.1v12.8c0,2-1.6,3.6-3.7,3.6h-25.8c-2,0-3.6-1.6-3.6-3.7V88c0-2,1.6-3.6,3.7-3.6h25.8
				C1322.5,84.4,1324.1,86.1,1324.1,88.1z"/>
			<path class="st4" d="M1276.8,186v12.8c0,2-1.6,3.6-3.7,3.6l-101.5-0.1c-2,0-3.6-1.6-3.6-3.7v-12.8c0-2,1.6-3.6,3.7-3.6l101.5,0.1
				C1275.2,182.3,1276.8,184,1276.8,186z"/>
			<path class="st4" d="M1112.6,88.1v12.8c0,2-1.6,3.6-3.7,3.6h-13.7c-2,0-3.6-1.6-3.6-3.7V88c0-2,1.6-3.6,3.7-3.6h13.7
				C1111,84.4,1112.6,86.1,1112.6,88.1z"/>
			<path class="st4" d="M1137.5,88.1v12.8c0,2-1.6,3.6-3.7,3.6h-13.7c-2,0-3.6-1.6-3.6-3.7V88c0-2,1.6-3.6,3.7-3.6h13.7
				C1135.8,84.4,1137.5,86.1,1137.5,88.1z"/>
			<path class="st4" d="M1162.4,88.1v12.8c0,2-1.6,3.6-3.7,3.6H1145c-2,0-3.6-1.6-3.6-3.7V88c0-2,1.6-3.6,3.7-3.6h13.7
				C1160.8,84.4,1162.4,86.1,1162.4,88.1z"/>
			<path class="st4" d="M1187.2,88.1v12.8c0,2-1.6,3.6-3.7,3.6h-13.7c-2,0-3.6-1.6-3.6-3.7V88c0-2,1.6-3.6,3.7-3.6h13.7
				C1185.6,84.4,1187.2,86.1,1187.2,88.1z"/>
			<path class="st4" d="M1212.6,88.1v12.8c0,2-1.6,3.6-3.7,3.6h-13.7c-2,0-3.6-1.6-3.6-3.7V88c0-2,1.6-3.6,3.7-3.6h13.7
				C1211,84.4,1212.6,86.1,1212.6,88.1z"/>
			<path class="st4" d="M1237.5,88.1v12.8c0,2-1.6,3.6-3.7,3.6h-13.7c-2,0-3.6-1.6-3.6-3.7V88c0-2,1.6-3.6,3.7-3.6h13.7
				C1235.8,84.4,1237.5,86.1,1237.5,88.1z"/>
			<path class="st4" d="M1261.9,88.1v12.8c0,2-1.6,3.6-3.7,3.6h-13.7c-2,0-3.6-1.6-3.6-3.7V88c0-2,1.6-3.6,3.7-3.6h13.7
				C1260.3,84.4,1261.9,86.1,1261.9,88.1z"/>
			<path class="st4" d="M1287.3,88.1v12.8c0,2-1.6,3.6-3.7,3.6h-13.7c-2,0-3.6-1.6-3.6-3.7V88c0-2,1.6-3.6,3.7-3.6h13.7
				C1285.7,84.4,1287.3,86.1,1287.3,88.1z"/>
			<path class="st4" d="M1147.6,112.1v12.8c0,2-1.6,3.6-3.7,3.6h-13.7c-2,0-3.6-1.6-3.6-3.7V112c0-2,1.6-3.6,3.7-3.6h13.7
				C1146,108.4,1147.6,110.1,1147.6,112.1z"/>
			<path class="st4" d="M1173.1,112.1v12.8c0,2-1.6,3.6-3.7,3.6h-13.7c-2,0-3.6-1.6-3.6-3.7V112c0-2,1.6-3.6,3.7-3.6h13.7
				C1171.5,108.4,1173.1,110.1,1173.1,112.1z"/>
			<path class="st4" d="M1198.6,112.1v12.8c0,2-1.6,3.6-3.7,3.6h-13.7c-2,0-3.6-1.6-3.6-3.7V112c0-2,1.6-3.6,3.7-3.6h13.7
				C1197,108.4,1198.6,110.1,1198.6,112.1z"/>
			<path class="st4" d="M1224.2,112.1v12.8c0,2-1.6,3.6-3.7,3.6h-13.7c-2,0-3.6-1.6-3.6-3.7V112c0-2,1.6-3.6,3.7-3.6h13.7
				C1222.5,108.4,1224.2,110.1,1224.2,112.1z"/>
			<path class="st4" d="M1249.7,112.1v12.8c0,2-1.6,3.6-3.7,3.6h-13.7c-2,0-3.6-1.6-3.6-3.7V112c0-2,1.6-3.6,3.7-3.6h13.7
				C1248.1,108.4,1249.7,110.1,1249.7,112.1z"/>
			<path class="st4" d="M1275.2,112.1v12.8c0,2-1.6,3.6-3.7,3.6h-13.7c-2,0-3.6-1.6-3.6-3.7V112c0-2,1.6-3.6,3.7-3.6h13.7
				C1273.6,108.4,1275.2,110.1,1275.2,112.1z"/>
			<path class="st4" d="M1300.7,112.1v12.8c0,2-1.6,3.6-3.7,3.6h-13.7c-2,0-3.6-1.6-3.6-3.7V112c0-2,1.6-3.6,3.7-3.6h13.7
				C1299.1,108.4,1300.7,110.1,1300.7,112.1z"/>
			<path class="st4" d="M1325.1,112.1v12.8c0,2-1.6,3.6-3.7,3.6h-13.7c-2,0-3.6-1.6-3.6-3.7V112c0-2,1.6-3.6,3.7-3.6h13.7
				C1323.5,108.4,1325.1,110.1,1325.1,112.1z"/>
			<path class="st4" d="M1153.6,135.9v12.8c0,2-1.6,3.6-3.7,3.6h-13.7c-2,0-3.6-1.6-3.6-3.7v-12.8c0-2,1.6-3.6,3.7-3.6h13.7
				C1152,132.3,1153.6,133.9,1153.6,135.9z"/>
			<path class="st4" d="M1178.5,135.9v12.8c0,2-1.6,3.6-3.7,3.6h-13.7c-2,0-3.6-1.6-3.6-3.7v-12.8c0-2,1.6-3.6,3.7-3.6h13.7
				C1176.8,132.3,1178.5,133.9,1178.5,135.9z"/>
			<path class="st4" d="M1203.4,135.9v12.8c0,2-1.6,3.6-3.7,3.6H1186c-2,0-3.6-1.6-3.6-3.7v-12.8c0-2,1.6-3.6,3.7-3.6h13.7
				C1201.7,132.3,1203.4,133.9,1203.4,135.9z"/>
			<path class="st4" d="M1228.2,135.9v12.8c0,2-1.6,3.6-3.7,3.6h-13.7c-2,0-3.6-1.6-3.6-3.7v-12.8c0-2,1.6-3.6,3.7-3.6h13.7
				C1226.6,132.3,1228.2,133.9,1228.2,135.9z"/>
			<path class="st4" d="M1253.6,135.9v12.8c0,2-1.6,3.6-3.7,3.6h-13.7c-2,0-3.6-1.6-3.6-3.7v-12.8c0-2,1.6-3.6,3.7-3.6h13.7
				C1252,132.3,1253.6,133.9,1253.6,135.9z"/>
			<path class="st4" d="M1278.5,135.9v12.8c0,2-1.6,3.6-3.7,3.6h-13.7c-2,0-3.6-1.6-3.6-3.7v-12.8c0-2,1.6-3.6,3.7-3.6h13.7
				C1276.8,132.3,1278.5,133.9,1278.5,135.9z"/>
			<path class="st4" d="M1161.3,161.7v12.8c0,2-1.6,3.6-3.7,3.6h-13.7c-2,0-3.6-1.6-3.6-3.7v-12.8c0-2,1.6-3.6,3.7-3.6h13.7
				C1159.6,158,1161.3,159.7,1161.3,161.7z"/>
			<path class="st4" d="M1186.1,161.7v12.8c0,2-1.6,3.6-3.7,3.6h-13.7c-2,0-3.6-1.6-3.6-3.7v-12.8c0-2,1.6-3.6,3.7-3.6h13.7
				C1184.5,158,1186.1,159.7,1186.1,161.7z"/>
			<path class="st4" d="M1211.1,161.7v12.8c0,2-1.6,3.6-3.7,3.6h-13.7c-2,0-3.6-1.6-3.6-3.7v-12.8c0-2,1.6-3.6,3.7-3.6h13.7
				C1209.4,158,1211.1,159.7,1211.1,161.7z"/>
			<path class="st4" d="M1302,185.9v12.8c0,2-1.6,3.6-3.7,3.6h-13.7c-2,0-3.6-1.6-3.6-3.7v-12.8c0-2,1.6-3.6,3.7-3.6h13.7
				C1300.3,182.2,1302,183.9,1302,185.9z"/>
			<path class="st4" d="M1325.7,185.9v12.8c0,2-1.6,3.6-3.7,3.6h-13.7c-2,0-3.6-1.6-3.6-3.7v-12.8c0-2,1.6-3.6,3.7-3.6h13.7
				C1324.1,182.2,1325.7,183.9,1325.7,185.9z"/>
			<path class="st4" d="M1325.7,161.6v12.8c0,2-1.6,3.6-3.7,3.6h-13.7c-2,0-3.6-1.6-3.6-3.7v-12.8c0-2,1.6-3.6,3.7-3.6h13.7
				C1324.1,158,1325.7,159.6,1325.7,161.6z"/>
			<path class="st4" d="M1350.6,185.9v12.8c0,2-1.6,3.6-3.7,3.6h-13.7c-2,0-3.6-1.6-3.6-3.7v-12.8c0-2,1.6-3.6,3.7-3.6h13.7
				C1349,182.2,1350.6,183.9,1350.6,185.9z"/>
			<path class="st4" d="M1350.6,161.7v12.8c0,2-1.6,3.6-3.7,3.6h-13.7c-2,0-3.6-1.6-3.6-3.7v-12.8c0-2,1.6-3.6,3.7-3.6h13.7
				C1349,158,1350.7,159.7,1350.6,161.7z"/>
			<path class="st4" d="M1374.4,161.7v12.8c0,2-1.6,3.6-3.7,3.6H1357c-2,0-3.6-1.6-3.6-3.7v-12.8c0-2,1.6-3.6,3.7-3.6h13.7
				C1372.7,158,1374.4,159.7,1374.4,161.7z"/>
			<path class="st4" d="M1398.2,161.7v12.8c0,2-1.6,3.6-3.7,3.6h-13.7c-2,0-3.6-1.6-3.6-3.7v-12.8c0-2,1.6-3.6,3.7-3.6h13.7
				C1396.5,158,1398.2,159.7,1398.2,161.7z"/>
			<path class="st4" d="M1375.1,185.9v12.8c0,2-1.6,3.6-3.7,3.6h-13.7c-2,0-3.6-1.6-3.6-3.7v-12.8c0-2,1.6-3.6,3.7-3.6h13.7
				C1373.5,182.2,1375.1,183.9,1375.1,185.9z"/>
			<path class="st4" d="M1398.9,185.9v12.8c0,2-1.6,3.6-3.7,3.6h-13.7c-2,0-3.6-1.6-3.6-3.7v-12.8c0-2,1.6-3.6,3.7-3.6h13.7
				C1397.3,182.2,1398.9,183.9,1398.9,185.9z"/>
			<path class="st4" d="M1350.6,136v12.8c0,2-1.6,3.6-3.7,3.6h-13.7c-2,0-3.6-1.6-3.6-3.7v-12.8c0-2,1.6-3.6,3.7-3.6h13.7
				C1349,132.4,1350.6,134,1350.6,136z"/>
			<path class="st4" d="M1374.3,136v12.8c0,2-1.6,3.6-3.7,3.6h-13.7c-2,0-3.6-1.6-3.6-3.7v-12.8c0-2,1.6-3.6,3.7-3.6h13.7
				C1372.7,132.4,1374.4,134,1374.3,136z"/>
			<path class="st4" d="M1398.1,136v12.8c0,2-1.6,3.6-3.7,3.6h-13.7c-2,0-3.6-1.6-3.6-3.7v-12.8c0-2,1.6-3.6,3.7-3.6h13.7
				C1396.5,132.4,1398.1,134,1398.1,136z"/>
			<path class="st4" d="M1349.5,112.2V125c0,2-1.6,3.6-3.7,3.6h-13.7c-2,0-3.6-1.6-3.6-3.7v-12.8c0-2,1.6-3.6,3.7-3.6h13.7
				C1347.9,108.5,1349.5,110.2,1349.5,112.2z"/>
			<path class="st4" d="M1374.4,112.2V125c0,2-1.6,3.6-3.7,3.6H1357c-2,0-3.6-1.6-3.6-3.7v-12.8c0-2,1.6-3.6,3.7-3.6h13.7
				C1372.7,108.5,1374.4,110.2,1374.4,112.2z"/>
			<path class="st4" d="M1398.2,112.2V125c0,2-1.6,3.6-3.7,3.6h-13.7c-2,0-3.6-1.6-3.6-3.7v-12.8c0-2,1.6-3.6,3.7-3.6h13.7
				C1396.5,108.5,1398.2,110.2,1398.2,112.2z"/>
			<path class="st4" d="M1422.2,112.2v36.6c0,2-1.6,3.6-3.7,3.6h-13.7c-2,0-3.6-1.6-3.6-3.7v-36.6c0-2,1.6-3.6,3.7-3.6h13.7
				C1420.5,108.5,1422.2,110.2,1422.2,112.2z"/>
			<path class="st4" d="M1422.2,161.7v36.6c0,2-1.6,3.6-3.7,3.6h-13.7c-2,0-3.6-1.6-3.6-3.7v-36.6c0-2,1.6-3.6,3.7-3.6h13.7
				C1420.6,158,1422.2,159.7,1422.2,161.7z"/>
			<path class="st4" d="M1349.5,88.2V101c0,2-1.6,3.6-3.7,3.6h-13.7c-2,0-3.6-1.6-3.6-3.7V88.1c0-2,1.6-3.6,3.7-3.6h13.7
				C1347.8,84.5,1349.5,86.2,1349.5,88.2z"/>
			<path class="st4" d="M1374.3,88.2V101c0,2-1.6,3.6-3.7,3.6h-13.7c-2,0-3.6-1.6-3.6-3.7V88.1c0-2,1.6-3.6,3.7-3.6h13.7
				C1372.7,84.5,1374.3,86.2,1374.3,88.2z"/>
			<path class="st4" d="M1398.1,88.2V101c0,2-1.6,3.6-3.7,3.6h-13.7c-2,0-3.6-1.6-3.6-3.7V88.1c0-2,1.6-3.6,3.7-3.6h13.7
				C1396.5,84.5,1398.1,86.2,1398.1,88.2z"/>
			<path class="st4" d="M1422.2,88.1v12.8c0,2-1.6,3.6-3.7,3.6h-13.7c-2,0-3.6-1.6-3.6-3.7V88c0-2,1.6-3.6,3.7-3.6h13.7
				C1420.5,84.4,1422.2,86.1,1422.2,88.1z"/>
			<path class="st4" d="M1235.9,161.7v12.8c0,2-1.6,3.6-3.7,3.6h-13.7c-2,0-3.6-1.6-3.6-3.7v-12.8c0-2,1.6-3.6,3.7-3.6h13.7
				C1234.3,158,1235.9,159.7,1235.9,161.7z"/>
			<path class="st4" d="M1261.9,161.7v12.8c0,2-1.6,3.6-3.7,3.6h-13.7c-2,0-3.6-1.6-3.6-3.7v-12.8c0-2,1.6-3.6,3.7-3.6h13.7
				C1260.3,158,1261.9,159.7,1261.9,161.7z"/>
			<path class="st4" d="M1135,161.7v12.8c0,2-1.6,3.6-3.7,3.6h-37.5c-2,0-3.6-1.6-3.6-3.7v-12.8c0-2,1.6-3.6,3.7-3.6h37.5
				C1133.4,158,1135,159.7,1135,161.7z"/>
			<path class="st4" d="M1300.8,161.7v12.8c0,2-1.6,3.6-3.7,3.6H1271c-2,0-3.6-1.6-3.6-3.7v-12.8c0-2,1.6-3.6,3.7-3.6h26.1
				C1299.1,158,1300.8,159.6,1300.8,161.7z"/>
			<path class="st4" d="M1326.2,135.9v12.8c0,2-1.6,3.6-3.7,3.6H1285c-2,0-3.6-1.6-3.6-3.7v-12.8c0-2,1.6-3.6,3.7-3.6h37.5
				C1324.5,132.3,1326.2,133.9,1326.2,135.9z"/>
			<path class="st4" d="M1128,135.9v12.8c0,2-1.6,3.6-3.7,3.6h-29.7c-2,0-3.6-1.6-3.6-3.7v-12.8c0-2,1.6-3.6,3.7-3.6h29.7
				C1126.4,132.3,1128,133.9,1128,135.9z"/>
			<path class="st4" d="M1121.7,112.1v12.8c0,2-1.6,3.6-3.7,3.6h-23.1c-2,0-3.6-1.6-3.6-3.7V112c0-2,1.6-3.6,3.7-3.6h23.1
				C1120,108.4,1121.7,110.1,1121.7,112.1z"/>
			<path class="st3" d="M1035.2,319.8l11.6-17.9c0.8,0.9,1.6,1.8,2.4,2.7l-11.1,17.1L1035.2,319.8z"/>
			<path class="st3" d="M964.9,194.5l65.4,42.3c-0.3,0.4-0.5,0.8-0.8,1.2c-0.4,0.6-0.7,1.2-1,1.8L963,197.4L964.9,194.5z"/>
			
				<rect x="1070.3" y="264.1" transform="matrix(0.5427 -0.8399 0.8399 0.5427 266.9312 1022.058)" class="st3" width="3.5" height="3.5"/>
		</g>
	</g>
	<g id="phone">
		<g>
			
				<image style="overflow:visible;opacity:0.75;enable-background:new    ;" width="554" height="1029" xlink:href="670F108D.png"  transform="matrix(0.2374 0 0 0.2388 1296.9915 330.8925)">
			</image>
			<g>
				<g>
					<g>
						<path class="st1" d="M1318.6,563c-6.7,0-12.2-6.2-12.2-13.8v-195c0-6.9,4.6-12.8,10.6-13.7c0.5-0.1,1-0.1,1.6-0.1h84.2
							c1.5,0,3,0.3,4.5,1c4.7,2.1,7.7,7.2,7.7,12.9v194.9c0,7.6-5.5,13.8-12.2,13.8L1318.6,563L1318.6,563z"/>
						<path d="M1402.8,342.9c1.2,0,2.3,0.3,3.4,0.7c3.7,1.7,6.2,5.9,6.2,10.6v194.9c0,6.2-4.3,11.3-9.7,11.3h-84.2
							c-5.3,0-9.7-5.1-9.7-11.3V354.2c0-5.7,3.6-10.5,8.5-11.2h0.1c0.3-0.1,0.7-0.1,1.1-0.1H1402.8 M1402.8,337.9h-84.2
							c-0.7,0-1.3,0-1.9,0.1c-7.2,1-12.7,7.9-12.7,16.2v194.9c0,9,6.6,16.3,14.7,16.3h84.2c8.1,0,14.7-7.3,14.7-16.3V354.2
							c0-6.8-3.8-12.7-9.2-15.1C1406.6,338.3,1404.8,337.9,1402.8,337.9L1402.8,337.9z"/>
					</g>
				</g>
			</g>
		</g>
		<path d="M1417.5,354.2v17.1H1304v-17.1c0-8.3,5.6-15.1,12.7-16.2l91.6,1C1413.7,341.5,1417.5,347.4,1417.5,354.2z"/>
		<path d="M1304,549.3v-17.5h113.5v17.5c0,8.3-5.6,15.1-12.7,16.2l-91.6-1C1307.8,562,1304,556.1,1304,549.3z"/>
		<circle class="st1" cx="1360.7" cy="548.6" r="6.2"/>
	</g>
	<g id="mouse">
		
			<image style="overflow:visible;opacity:0.75;enable-background:new    ;" width="433" height="1142" xlink:href="670F108F.png"  transform="matrix(0.2394 0 0 0.2385 1486.1947 14.221)">
		</image>
		<g>
			<g>
				<path class="st1" d="M1544.7,275.5h-17.5c-18.7,0-34-15.3-34-34v-90.8c0-18.7,15.3-34,34-34h17.5c18.7,0,34,15.3,34,34v90.8
					C1578.8,260.2,1563.4,275.5,1544.7,275.5z"/>
				<path class="st6" d="M1536,116.4V74.3c0-5.6,4.5-10.2,10.2-10.2h8.7c7,0,12.7-5.7,12.7-12.7V21.2"/>
				<circle class="st2" cx="1536" cy="155.9" r="5.6"/>
			</g>
		</g>
	</g>
	<g id="tablet" class="st8">
		<g class="st9">
			
				<image style="overflow:visible;opacity:0.75;enable-background:new    ;" width="1450" height="1050" xlink:href="670F108B.png"  transform="matrix(0.2393 0 0 0.2384 556.8351 277.3982)">
			</image>
			<g>
				<g>
					<g>
						<rect x="578.8" y="299.4" class="st1" width="298.9" height="202.2"/>
						<path d="M862.7,314.4v172.2H593.8V314.4H862.7 M878.3,284.4H578.2c-8,0-14.4,6.4-14.4,14.4v203.4c0,8,6.4,14.4,14.4,14.4
							h300.1c8,0,14.4-6.4,14.4-14.4V298.8C892.7,290.8,886.3,284.4,878.3,284.4L878.3,284.4z"/>
					</g>
					<circle class="st1" cx="579.3" cy="400.5" r="7.5"/>
				</g>
			</g>
		</g>
	</g>
	<g id="pencil">
		
			<image style="overflow:visible;opacity:0.75;enable-background:new    ;" width="738" height="588" xlink:href="670F10B3.png"  transform="matrix(0.2374 0 0 0.2384 530.0426 579.8389)">
		</image>
		<g>
			<g>
				<path class="st10" d="M693.1,597c1.2-0.9,1.5-2.7,0.5-3.9l-4-5.2c-0.9-1.2-2.7-1.5-3.9-0.5l-6.4,4.9c2.5,3.2,4.9,6.4,7.4,9.6
					L693.1,597z"/>
				<path class="st11" d="M684,604l2.7-2.1c-2.5-3.2-4.9-6.4-7.4-9.6l-2.7,2.1C679.1,597.6,681.5,600.8,684,604z"/>
				<path class="st12" d="M556,702.1L684,604c-2.5-3.2-4.9-6.4-7.4-9.6l-128,98.1L556,702.1z"/>
				<path class="st13" d="M556,702.1l-7.4-9.6l-9.3,13.3c0.5,0.6,1,1.3,1.4,1.9L556,702.1z"/>
				<path class="st14" d="M540.8,707.6c-0.5-0.6-1-1.3-1.4-1.9L537,709L540.8,707.6z"/>
			</g>
		</g>
	</g>
	<g id="pencil_2_">
		
			<image style="overflow:visible;opacity:0.75;enable-background:new    ;" width="733" height="588" xlink:href="670F10A8.png"  transform="matrix(0.239 0 0 0.2384 450.5332 11.1625)">
		</image>
		<g>
			<g>
				<path class="st10" d="M613.6,28.3c1.2-0.9,1.5-2.7,0.5-3.9l-4-5.2c-0.9-1.2-2.7-1.5-3.9-0.5l-6.4,4.9c2.5,3.2,4.9,6.4,7.4,9.6
					L613.6,28.3z"/>
				<path class="st11" d="M604.5,35.3l2.7-2.1c-2.5-3.2-4.9-6.4-7.4-9.6l-2.7,2.1C599.6,28.9,602,32.1,604.5,35.3z"/>
				<path class="st12" d="M476.5,133.4l128-98.1c-2.5-3.2-4.9-6.4-7.4-9.6l-128,98.1L476.5,133.4z"/>
				<path class="st13" d="M476.5,133.4l-7.4-9.6l-9.3,13.3c0.5,0.6,1,1.3,1.4,1.9L476.5,133.4z"/>
				<path class="st14" d="M461.3,138.9c-0.5-0.6-1-1.3-1.4-1.9l-2.3,3.2L461.3,138.9z"/>
			</g>
		</g>
	</g>
	<g id="pencil_1_">
		
			<image style="overflow:visible;opacity:0.75;enable-background:new    ;" width="892" height="492" xlink:href="670F10AB.png"  transform="matrix(0.2381 0 0 0.2385 1036.9832 372.9696)">
		</image>
		<g>
			<g>
				<path class="st10" d="M1051.1,380.3c-1.5-0.8-3.3-0.2-4,1.2l-2.9,5.8c-0.7,1.4,0,3.1,1.5,3.9l8,3.9c1.8-3.6,3.6-7.2,5.3-10.9
					L1051.1,380.3z"/>
				<path class="st11" d="M1062.5,385.9l-3.4-1.7c-1.8,3.6-3.6,7.2-5.3,10.9l3.4,1.7C1058.9,393.1,1060.7,389.5,1062.5,385.9z"/>
				<path class="st12" d="M1222,464.4l-159.5-78.5c-1.8,3.6-3.6,7.2-5.3,10.9l159.5,78.5L1222,464.4z"/>
				<path class="st13" d="M1222,464.4l-5.3,10.9l17.4,3.2c0.3-0.7,0.7-1.4,1-2.1L1222,464.4z"/>
				<path class="st14" d="M1235.1,476.3c-0.3,0.7-0.7,1.4-1,2.1l4.3,0.8L1235.1,476.3z"/>
			</g>
		</g>
	</g>
</g>
</svg>
